<?xml version="1.0" encoding="utf-8"?>
<!-- Generator: Adobe Illustrator 16.0.0, SVG Export Plug-In . SVG Version: 6.00 Build 0)  -->
<!DOCTYPE svg PUBLIC "-//W3C//DTD SVG 1.1//EN" "http://www.w3.org/Graphics/SVG/1.1/DTD/svg11.dtd">
<svg version="1.1" id="Layer_1" xmlns="http://www.w3.org/2000/svg" xmlns:xlink="http://www.w3.org/1999/xlink" x="0px" y="0px"
	 width="41.756px" height="61.745px" viewBox="30.42 3.572 41.756 61.745" enable-background="new 30.42 3.572 41.756 61.745"
	 xml:space="preserve">
<path d="M64.707,49.9c0.926,0,1.809-0.176,2.629-0.486c0.082-0.032,0.167-0.056,0.248-0.091c0.068-0.029,0.134-0.063,0.201-0.094
	c2.584-1.175,4.391-3.776,4.391-6.795c0-1.52-0.459-2.933-1.242-4.114c-0.047-0.071-0.097-0.136-0.145-0.205
	c-0.047-0.065-0.097-0.129-0.146-0.194c-1.365-1.792-3.515-2.955-5.937-2.955c-4.117,0-7.467,3.349-7.467,7.468
	c0,0.211-0.084,0.402-0.223,0.538c-0.139,0.14-0.328,0.225-0.54,0.225c-0.421,0-0.763-0.341-0.763-0.762
	c0-4.958,4.034-8.991,8.992-8.991c2.247,0,4.299,0.833,5.877,2.201c0.057,0.05,0.111,0.102,0.168,0.151
	c0.051,0.046,0.104,0.092,0.154,0.14c-0.518-10.197-5.447-15.172-9.627-17.56c-3.344-1.911-6.713-2.499-8.458-2.681v-8.16
	c0-1.593-1.055-3.962-3.962-3.962c-2.908,0-3.963,2.37-3.963,3.962v2.744c0,0.673,0.546,1.219,1.219,1.219s1.219-0.546,1.219-1.219
	V7.534c0-0.357,0.109-1.524,1.524-1.524c0.556,0,1.495,0.2,1.524,1.524v8.159c-1.745,0.182-5.115,0.771-8.458,2.681
	c-7.047,4.027-9.188,11.078-9.598,17.004c0.055-0.043,0.111-0.083,0.167-0.125s0.109-0.083,0.165-0.124
	c1.475-1.058,3.276-1.688,5.227-1.688c4.958,0,8.992,4.033,8.992,8.991c0,0.42-0.341,0.762-0.762,0.762
	c-0.211,0-0.401-0.085-0.54-0.224c-0.138-0.138-0.222-0.327-0.222-0.539c0-4.119-3.35-7.467-7.468-7.467
	c-2.081,0-3.963,0.857-5.318,2.235c-0.055,0.056-0.106,0.116-0.159,0.174c-0.054,0.059-0.108,0.116-0.161,0.176
	c-1.136,1.311-1.83,3.015-1.83,4.883c0,3.318,2.175,6.133,5.173,7.104c0.059,0.019,0.119,0.037,0.179,0.054
	c0.074,0.023,0.149,0.039,0.225,0.059c0.604,0.158,1.236,0.25,1.89,0.25c0.21,0,0.401,0.085,0.539,0.224
	c0.138,0.138,0.224,0.328,0.224,0.539c0,0.421-0.341,0.761-0.762,0.761c-0.27,0-0.535-0.016-0.798-0.039
	c-0.079-0.007-0.158-0.016-0.236-0.024c-0.056-0.006-0.11-0.018-0.166-0.024c1.666,2.532,3.626,4.771,5.567,6.679
	c-1.938,0.174-3.964,0.688-5.271,1.926c-0.305,0.289-0.319,0.771-0.029,1.078c0.149,0.157,0.352,0.238,0.553,0.238
	c0.188,0,0.376-0.071,0.524-0.21c1.04-0.985,2.969-1.532,5.58-1.581c0.039,0,0.077,0,0.115-0.002
	c-0.927,0.305-1.775,0.745-2.437,1.373c-0.306,0.29-0.319,0.771-0.029,1.078c0.149,0.158,0.351,0.237,0.552,0.237
	c0.188,0,0.377-0.069,0.524-0.208c0.628-0.597,1.585-1.027,2.815-1.289c3.471,2.928,6.302,4.578,6.375,4.617l0.076,0.045
	l0.076-0.045c0.075-0.042,3.039-1.77,6.618-4.826c1.913,0.189,3.358,0.695,4.204,1.497c0.147,0.14,0.336,0.208,0.523,0.208
	c0.202,0,0.404-0.079,0.553-0.237c0.29-0.307,0.277-0.788-0.028-1.077c-0.663-0.629-1.511-1.068-2.437-1.373
	c0.037,0.001,0.076,0.001,0.114,0.001c2.61,0.049,4.54,0.597,5.58,1.581c0.147,0.14,0.336,0.21,0.524,0.21
	c0.201,0,0.403-0.081,0.553-0.239c0.29-0.307,0.275-0.787-0.029-1.077c-1.664-1.575-4.49-1.979-6.824-2.002
	c1.944-1.921,3.901-4.17,5.561-6.713c-0.057,0.012-0.115,0.021-0.172,0.033c-0.079,0.016-0.16,0.022-0.241,0.038
	c-0.479,0.078-0.968,0.129-1.468,0.129c-0.42,0-0.762-0.34-0.762-0.761c0-0.21,0.086-0.401,0.223-0.539
	C64.305,49.985,64.496,49.9,64.707,49.9z M52.586,59.104c0.066,0,0.129,0.013,0.19,0.033c0.151,0.049,0.282,0.156,0.356,0.306
	c0.102,0.206,0.079,0.452-0.061,0.637l-0.367,0.488l-0.617,0.817c-0.116,0.15-0.296,0.241-0.487,0.241
	c-0.19,0-0.371-0.091-0.486-0.241l-0.701-0.929l-0.284-0.377c-0.139-0.185-0.164-0.431-0.06-0.637
	c0.104-0.209,0.315-0.339,0.546-0.339h1.32H52.586z M56.316,49.559c0,0.945-0.546,1.714-1.219,1.714
	c-0.674,0-1.219-0.769-1.219-1.714c0-0.947,0.545-1.716,1.219-1.716C55.771,47.843,56.316,48.611,56.316,49.559z M47.562,47.843
	c0.673,0,1.219,0.769,1.219,1.716c0,0.945-0.545,1.714-1.219,1.714c-0.674,0-1.219-0.769-1.219-1.714
	C46.342,48.611,46.889,47.843,47.562,47.843z"/>
</svg>
